<?xml version="1.0" standalone="no"?>
<!DOCTYPE svg PUBLIC "-//W3C//DTD SVG 20010904//EN"
 "http://www.w3.org/TR/2001/REC-SVG-20010904/DTD/svg10.dtd">
<svg version="1.0" xmlns="http://www.w3.org/2000/svg"
 width="2560.000000pt" height="2560.000000pt" viewBox="0 0 2560.000000 2560.000000"
 preserveAspectRatio="xMidYMid meet">

<g transform="translate(0.000000,2560.000000) scale(0.100000,-0.100000)"
fill="#000000" stroke="none">
<path d="M11840 22191 c-144 -39 -240 -112 -295 -224 -31 -65 -88 -315 -570
-2527 -632 -2896 -809 -3705 -1145 -5245 -283 -1295 -272 -1220 -209 -1352 60
-125 166 -205 318 -239 142 -32 300 12 411 113 100 91 94 72 280 926 832 3812
1515 6939 1628 7452 152 692 157 728 113 838 -28 72 -119 172 -192 211 -61 34
-178 66 -234 65 -22 0 -69 -9 -105 -18z"/>
<path d="M13277 22186 c-177 -53 -302 -198 -314 -366 -4 -59 91 -505 961
-4489 648 -2966 974 -4441 990 -4475 107 -232 425 -320 658 -183 54 32 129
111 157 166 34 66 54 158 46 215 -3 27 -438 2030 -966 4450 -689 3157 -967
4415 -985 4452 -54 115 -155 195 -294 233 -95 27 -155 26 -253 -3z"/>
<path d="M8390 22064 c-504 -43 -721 -93 -1358 -315 -495 -173 -697 -225
-1029 -270 -212 -29 -671 -32 -898 -5 -663 76 -1137 243 -1408 494 -26 25 -47
39 -47 32 0 -6 22 -231 50 -498 345 -3375 470 -4602 470 -4616 0 -17 165 -153
270 -223 339 -226 717 -382 1130 -467 274 -56 640 -82 1015 -73 348 9 591 40
875 112 126 31 202 56 660 213 286 99 434 122 780 122 376 0 597 -30 959 -131
14 -4 36 96 860 3869 160 733 291 1339 291 1346 0 15 -54 36 -255 97 -465 141
-1062 254 -1585 299 -126 11 -696 21 -780 14z"/>
<path d="M16265 22060 c-409 -30 -941 -116 -1340 -216 -271 -69 -548 -155
-571 -178 -8 -8 143 -715 558 -2616 313 -1432 570 -2606 572 -2608 2 -2 43 8
90 23 113 34 353 81 491 95 183 18 451 23 611 11 237 -17 422 -61 704 -166
553 -207 928 -275 1502 -275 491 0 797 35 1140 130 398 110 860 351 1100 572
l57 53 261 2560 c143 1408 260 2563 260 2566 0 3 -24 -17 -52 -44 -231 -215
-684 -389 -1217 -467 -278 -41 -752 -52 -1012 -25 -353 37 -567 91 -1094 275
-554 193 -749 245 -1130 297 -131 17 -744 26 -930 13z"/>
<path d="M11310 11773 c-212 -32 -370 -73 -370 -93 0 -6 20 -55 45 -110 41
-91 56 -150 38 -150 -3 0 -623 16 -1377 35 l-1371 35 -1255 -475 c-690 -262
-1258 -479 -1262 -483 -4 -4 -8 -85 -10 -181 l-3 -174 64 -13 c136 -28 280
-84 404 -157 265 -157 477 -420 575 -713 111 -330 89 -669 -62 -979 -30 -60
-53 -111 -52 -112 3 -4 2422 -53 4796 -98 1414 -27 4416 -74 4838 -75 l52 0 0
353 0 352 -30 105 c-16 58 -30 108 -30 112 0 5 23 8 50 8 l50 0 0 -230 0 -230
65 0 65 0 0 -45 0 -45 316 0 316 0 -5 23 c-3 12 -17 67 -31 122 -126 476 49
1019 425 1320 41 32 78 62 83 66 20 17 -227 116 -434 173 -209 58 -188 56
-1092 81 l-847 23 -281 223 c-155 123 -314 248 -354 278 -83 62 -286 164 -370
186 -90 22 -261 37 -356 30 -47 -4 -557 -94 -1135 -201 -577 -107 -1055 -194
-1062 -194 -10 0 -13 32 -13 140 l0 140 30 0 30 0 0 294 0 295 -42 3 c-42 3
-43 4 -46 40 -3 31 -7 37 -28 40 -21 2 -31 17 -60 79 -29 65 -33 81 -24 104
15 41 3 65 -43 86 -40 18 -127 23 -197 12z m2776 -1085 c55 -62 68 -67 173
-68 l94 0 116 -61 c191 -101 251 -156 251 -228 0 -30 -13 -41 -25 -21 -3 6
-26 10 -50 10 l-44 0 -3 -42 -3 -43 -85 -12 c-47 -7 -117 -18 -157 -26 l-72
-14 -6 26 c-4 14 -5 81 -4 150 l3 126 -27 13 c-55 27 -167 43 -344 49 l-183 6
0 -91 0 -92 46 0 45 0 -3 -42 -3 -43 -177 -3 -178 -2 0 -52 0 -51 -232 7 -233
7 -80 56 c-44 30 -137 93 -207 140 -71 47 -128 89 -128 93 0 5 4 12 10 15 5 3
272 53 592 111 321 58 601 109 623 113 22 5 88 9 146 10 l107 1 38 -42z"/>
<path d="M3918 11218 c-6 -97 -35 -152 -97 -185 -44 -23 -46 -23 -431 -23
l-387 0 186 -497 c102 -274 190 -504 194 -510 5 -7 23 -13 41 -13 l34 0 101
-301 101 -300 0 -100 0 -99 36 -40 c20 -22 68 -55 106 -75 l71 -35 178 0 c177
0 179 0 183 23 3 12 10 50 16 85 52 291 249 599 505 790 89 67 257 153 371
191 90 30 243 61 302 61 17 0 32 4 32 9 0 5 -18 48 -39 97 -33 75 -264 702
-300 815 -6 20 -25 57 -41 83 -55 86 -39 83 -636 92 l-521 7 -5 -75z"/>
<path d="M5419 10050 c-127 -12 -270 -54 -395 -115 -605 -295 -841 -1026 -522
-1617 175 -324 480 -542 847 -604 138 -24 351 -15 486 21 416 109 741 437 847
855 200 792 -444 1538 -1263 1460z m344 -304 c91 -23 225 -83 292 -129 39 -27
185 -168 185 -179 0 -21 -30 -2 -90 56 -88 87 -215 165 -336 206 -90 31 -112
34 -244 38 -119 3 -160 1 -227 -15 -66 -16 -83 -17 -87 -7 -5 13 22 24 109 43
22 5 99 9 171 10 109 1 148 -3 227 -23z m-27 -71 c115 -29 222 -78 308 -139
77 -56 140 -121 131 -135 -4 -7 -37 17 -87 64 -179 169 -440 244 -697 201 -96
-16 -124 -16 -107 1 16 16 129 31 237 32 93 1 136 -4 215 -24z m-606 -54 l19
-38 -70 -48 c-123 -84 -229 -216 -285 -353 -45 -113 -58 -180 -58 -307 0 -144
18 -222 90 -380 4 -9 -62 -55 -78 -55 -12 0 -70 144 -89 225 -32 127 -31 296
0 420 45 176 136 331 264 451 69 65 168 135 180 127 4 -2 16 -21 27 -42z m560
-182 c109 -30 186 -75 266 -154 123 -122 181 -273 171 -445 -9 -158 -63 -278
-176 -390 -113 -112 -262 -171 -431 -172 -310 -2 -573 268 -573 587 0 173 51
294 178 420 57 57 100 89 149 114 131 63 282 77 416 40z m664 -176 c64 -132
91 -276 83 -436 -16 -310 -182 -581 -454 -741 -8 -4 -20 8 -33 35 -12 22 -20
42 -18 43 163 99 263 208 336 366 58 125 75 203 75 345 -1 133 -20 226 -68
328 -15 32 -26 59 -24 61 11 9 65 35 75 36 6 0 18 -17 28 -37z m-1376 -969
c136 -133 314 -212 518 -229 70 -6 146 1 276 27 7 2 13 -4 13 -12 0 -44 -300
-59 -440 -21 -89 24 -200 74 -272 122 -89 60 -191 169 -157 169 3 0 31 -25 62
-56z m-58 -37 c117 -113 240 -184 397 -229 103 -30 324 -32 422 -5 43 12 68
14 75 7 5 -5 8 -12 5 -14 -17 -18 -142 -39 -250 -43 -193 -8 -331 23 -479 109
-106 60 -260 204 -245 228 3 5 7 10 8 10 1 0 32 -28 67 -63z"/>
<path d="M5457 9312 c-21 -23 -21 -44 -2 -110 17 -56 44 -82 86 -82 41 0 68
29 84 90 19 70 19 85 -1 104 -24 24 -145 22 -167 -2z"/>
<path d="M5314 9274 c-53 -26 -104 -74 -104 -99 0 -28 101 -115 135 -115 35 0
75 44 74 82 0 45 -30 118 -54 134 -17 11 -25 11 -51 -2z"/>
<path d="M5713 9275 c-24 -17 -58 -106 -55 -144 3 -34 40 -71 72 -71 26 0 103
47 128 78 23 30 14 59 -30 95 -38 30 -80 57 -90 57 -2 0 -13 -7 -25 -15z"/>
<path d="M5132 9083 c-20 -18 -52 -101 -52 -134 0 -36 28 -49 106 -49 84 0
114 18 114 69 0 34 -19 58 -79 100 -51 36 -61 37 -89 14z"/>
<path d="M5865 9078 c-67 -48 -85 -71 -85 -107 0 -61 29 -81 113 -81 64 0 107
27 107 66 0 32 -36 125 -52 136 -22 13 -52 8 -83 -14z"/>
<path d="M5481 9058 c-91 -20 -160 -121 -147 -214 20 -150 185 -216 319 -128
68 44 97 156 63 238 -19 46 -73 93 -115 101 -20 3 -45 8 -56 10 -11 2 -40 -1
-64 -7z"/>
<path d="M5801 8833 c-28 -23 -31 -85 -6 -113 25 -28 108 -80 128 -80 27 0 44
26 61 95 15 61 15 69 1 91 -14 22 -23 24 -89 24 -55 0 -79 -4 -95 -17z"/>
<path d="M5089 8819 c-13 -25 -7 -64 20 -125 17 -37 24 -44 49 -44 28 0 104
45 130 78 18 23 15 56 -9 86 -19 24 -26 26 -99 26 -71 0 -81 -2 -91 -21z"/>
<path d="M5268 8637 c-77 -62 -76 -84 2 -142 88 -64 99 -61 136 39 30 83 30
91 -1 121 -37 38 -75 33 -137 -18z"/>
<path d="M5680 8656 c-12 -14 -22 -36 -22 -49 0 -26 29 -114 45 -134 18 -24
60 -13 114 27 43 33 53 46 53 70 0 24 -10 37 -53 70 -64 47 -102 52 -137 16z"/>
<path d="M5493 8605 c-21 -15 -53 -101 -53 -142 0 -37 32 -53 103 -53 71 0 97
14 97 53 0 35 -29 119 -47 139 -20 22 -71 24 -100 3z"/>
<path d="M18269 10050 c-480 -43 -900 -406 -1025 -887 -35 -131 -43 -338 -20
-469 68 -390 307 -713 651 -879 182 -88 342 -120 560 -112 200 7 328 41 502
131 307 160 525 446 605 796 25 112 30 353 9 460 -103 520 -520 905 -1041 960
-105 11 -116 11 -241 0z m333 -299 c171 -44 315 -125 432 -244 80 -82 55 -94
-27 -13 -124 122 -286 207 -457 242 -99 20 -290 15 -379 -10 -53 -15 -71 -14
-71 4 0 8 99 33 175 44 64 9 252 -4 327 -23z m-96 -52 c80 -14 176 -45 249
-82 119 -59 280 -196 257 -219 -7 -7 -23 4 -47 31 -91 101 -272 204 -412 235
-111 25 -286 21 -395 -9 -22 -5 -28 -4 -28 8 0 15 31 24 130 40 52 9 189 7
246 -4z m-533 -64 c9 -20 17 -40 17 -44 0 -5 -19 -20 -42 -34 -24 -14 -71 -51
-106 -82 -250 -227 -331 -597 -197 -908 l33 -78 -39 -19 c-21 -11 -43 -20 -48
-20 -11 0 -61 126 -87 220 -27 97 -25 327 5 435 44 165 141 327 262 439 64 60
156 126 175 126 5 0 18 -16 27 -35z m556 -190 c209 -50 390 -231 441 -440 20
-87 15 -220 -14 -310 -73 -229 -260 -378 -517 -414 -327 -45 -639 240 -639
582 0 103 15 167 60 262 79 164 239 290 413 325 68 13 187 11 256 -5z m690
-209 c50 -120 63 -182 68 -322 8 -205 -31 -357 -135 -524 -57 -92 -175 -213
-261 -269 l-64 -41 -24 42 -25 43 24 15 c136 89 238 202 304 335 60 122 84
224 85 352 0 127 -14 205 -54 308 -18 44 -32 83 -32 88 0 9 56 45 72 46 6 1
25 -32 42 -73z m-1378 -950 c194 -184 500 -266 748 -202 41 11 51 11 55 0 6
-16 -38 -30 -152 -45 -159 -23 -357 20 -517 112 -112 64 -253 199 -208 199 3
0 36 -29 74 -64z m77 -146 c81 -53 205 -103 317 -127 92 -20 261 -19 348 1 83
20 87 20 87 2 0 -27 -140 -51 -280 -50 -256 3 -479 99 -649 279 -40 42 -51 59
-41 65 9 6 34 -13 79 -57 36 -35 98 -86 139 -113z"/>
<path d="M18306 9314 c-20 -19 -20 -37 0 -105 17 -61 44 -89 83 -89 45 0 67
25 86 95 14 51 16 71 7 90 -11 23 -16 25 -86 25 -54 0 -79 -4 -90 -16z"/>
<path d="M18139 9262 c-97 -62 -102 -89 -30 -150 61 -52 87 -58 129 -32 24 15
32 27 32 49 0 43 -38 139 -60 151 -24 13 -19 14 -71 -18z"/>
<path d="M18564 9276 c-25 -18 -59 -125 -50 -160 7 -30 58 -60 86 -51 11 4 42
24 70 46 70 56 69 81 -7 137 -63 47 -70 48 -99 28z"/>
<path d="M17983 9092 c-14 -9 -53 -114 -53 -142 0 -34 33 -50 106 -50 88 0
114 16 114 69 0 28 -7 44 -27 63 -67 60 -110 79 -140 60z"/>
<path d="M18720 9079 c-63 -38 -90 -70 -90 -106 0 -55 27 -73 113 -73 107 0
124 24 91 126 -26 77 -53 90 -114 53z"/>
<path d="M18291 9044 c-190 -95 -119 -363 97 -364 131 0 221 110 193 234 -31
135 -162 194 -290 130z"/>
<path d="M17953 8835 c-27 -19 -28 -35 -7 -101 32 -95 61 -105 145 -46 46 32
54 43 57 73 5 60 -22 83 -104 87 -52 2 -75 -1 -91 -13z"/>
<path d="M18656 8829 c-28 -22 -35 -64 -16 -98 14 -28 103 -81 134 -81 29 0
44 24 68 114 11 40 10 47 -7 66 -26 29 -141 29 -179 -1z"/>
<path d="M18113 8638 c-74 -57 -73 -82 4 -137 32 -23 65 -41 74 -41 22 0 43
27 62 80 23 61 21 95 -5 120 -34 32 -76 25 -135 -22z"/>
<path d="M18532 8657 c-26 -27 -28 -59 -7 -118 32 -89 62 -98 137 -43 81 60
81 88 1 149 -55 42 -99 46 -131 12z"/>
<path d="M18342 8603 c-21 -19 -52 -101 -52 -138 0 -39 30 -55 103 -55 98 0
111 19 81 121 -17 61 -44 89 -84 89 -15 0 -37 -8 -48 -17z"/>
<path d="M19650 9272 c0 -4 7 -31 15 -59 24 -79 45 -239 45 -337 0 -158 -33
-329 -94 -490 -14 -37 -26 -81 -26 -97 l0 -29 260 0 260 0 0 -40 c0 -33 -3
-40 -20 -40 -18 0 -20 -7 -20 -70 l0 -70 1025 0 1025 0 0 390 0 390 -562 0
-563 0 -112 41 c-110 41 -113 43 -114 73 0 17 -1 65 -2 106 l-2 75 -335 5
-335 6 -200 71 c-245 86 -245 86 -245 75z"/>
<path d="M5290 6963 c-254 -40 -460 -118 -655 -249 -442 -294 -691 -813 -645
-1339 31 -358 171 -656 430 -915 167 -167 362 -289 580 -363 184 -63 249 -72
490 -71 241 0 331 14 528 79 132 44 334 147 391 200 83 76 81 54 81 618 0 540
1 529 -57 605 -14 19 -49 45 -77 58 l-51 24 -395 0 c-376 0 -397 -1 -440 -21
-93 -42 -143 -116 -144 -214 -1 -111 46 -188 139 -231 48 -23 61 -24 273 -24
l222 0 -2 -267 -3 -267 -55 -17 c-168 -51 -442 -72 -580 -44 -204 41 -350 117
-497 258 -238 229 -346 561 -288 888 82 472 481 809 957 809 136 0 271 -26
415 -80 126 -48 200 -53 270 -19 48 23 99 82 119 137 29 80 9 189 -44 245 -63
67 -320 165 -503 191 -97 15 -389 20 -459 9z"/>
<path d="M8330 6955 c-290 -50 -532 -176 -738 -383 -489 -496 -562 -1349 -165
-1946 200 -301 505 -507 863 -583 104 -22 418 -25 522 -5 474 90 860 412 1037
867 197 503 129 1082 -176 1508 -167 232 -451 433 -716 507 -176 50 -453 65
-627 35z m400 -490 c170 -40 281 -104 410 -234 169 -171 254 -362 280 -628 23
-241 -30 -482 -151 -686 -55 -93 -202 -239 -294 -293 -246 -144 -563 -147
-810 -9 -88 49 -189 137 -246 213 -70 94 -144 250 -175 367 -32 123 -44 359
-24 483 66 420 313 706 680 788 79 17 253 17 330 -1z"/>
<path d="M19010 6941 c-155 -32 -248 -207 -181 -342 12 -24 201 -282 421 -573
l400 -529 -23 -31 c-198 -259 -793 -1078 -807 -1109 -12 -25 -20 -64 -20 -97
0 -202 233 -295 379 -150 25 25 204 260 396 522 193 263 353 477 357 478 4 0
172 -219 373 -487 202 -269 381 -501 398 -517 78 -70 175 -85 265 -40 60 30
118 92 132 143 15 56 11 132 -9 176 -10 22 -199 281 -420 575 -230 306 -400
542 -398 550 2 9 183 252 402 540 220 288 406 540 416 560 52 109 13 232 -95
295 -89 52 -184 38 -265 -38 -18 -18 -195 -247 -393 -510 l-359 -478 -375 497
c-206 274 -383 504 -392 511 -51 42 -142 66 -202 54z"/>
<path d="M15398 6924 c-53 -16 -125 -80 -151 -136 -16 -33 -17 -123 -17 -1292
0 -1387 -4 -1294 63 -1365 115 -121 319 -82 389 76 10 21 14 234 18 906 l5
878 339 -536 c238 -376 351 -546 379 -570 51 -44 126 -68 184 -59 24 3 66 20
95 38 56 33 68 49 613 878 l140 213 5 -860 c4 -647 8 -867 17 -887 7 -16 31
-48 54 -73 113 -123 341 -91 413 57 l26 54 -2 1264 -3 1265 -30 44 c-41 59
-99 99 -167 113 -49 10 -65 9 -110 -5 -29 -9 -69 -30 -88 -46 -20 -16 -230
-320 -500 -724 -256 -383 -469 -695 -474 -694 -5 2 -210 313 -457 692 -478
738 -480 740 -581 770 -63 18 -98 18 -160 -1z"/>
<path d="M10915 6915 c-22 -8 -59 -34 -82 -58 -78 -83 -74 2 -71 -1383 3
-1159 4 -1231 21 -1269 38 -85 113 -135 214 -143 109 -8 212 50 257 148 20 43
21 64 26 550 l5 505 487 5 486 5 43 30 c24 17 57 50 74 74 27 39 30 50 30 124
0 73 -3 86 -28 124 -34 49 -87 87 -142 102 -26 7 -202 11 -497 11 l-458 0 0
360 0 359 568 3 567 3 47 23 c123 61 170 200 109 320 -25 48 -55 76 -111 101
-44 20 -61 21 -775 20 -604 0 -737 -2 -770 -14z"/>
<path d="M13915 6920 c-47 -14 -685 -397 -723 -433 -64 -61 -88 -133 -72 -212
22 -104 99 -184 200 -206 72 -15 130 5 285 101 72 44 133 80 138 80 4 0 7
-450 7 -1000 0 -1104 -4 -1039 63 -1108 18 -19 50 -43 72 -54 48 -25 145 -34
201 -19 62 17 131 68 162 120 l27 46 3 1240 c2 900 0 1251 -8 1280 -16 56 -55
109 -103 141 -37 25 -53 28 -132 31 -49 1 -104 -2 -120 -7z"/>
</g>
</svg>
